<svg xmlns="http://www.w3.org/2000/svg" viewBox="0 0 640 420" role="img" aria-label="Amazon best seller success">
  <defs>
    <linearGradient id="g2" x1="0" y1="0" x2="1" y2="1">
      <stop offset="0%" stop-color="#fff7ed"/>
      <stop offset="100%" stop-color="#fef3c7"/>
    </linearGradient>
  </defs>
  <rect width="640" height="420" rx="24" fill="url(#g2)"/>
  <rect x="110" y="90" width="180" height="240" rx="12" fill="#fff" stroke="#d1d5db" stroke-width="4"/>
  <rect x="140" y="130" width="120" height="120" rx="8" fill="#fb923c"/>
  <polygon points="200,148 212,182 248,182 219,203 230,236 200,216 170,236 181,203 152,182 188,182" fill="#fff"/>
  <rect x="140" y="270" width="120" height="12" rx="6" fill="#cbd5e1"/>
  <circle cx="420" cy="170" r="72" fill="#0ea5a4"/>
  <polygon points="420,118 436,157 478,160 446,186 456,228 420,205 384,228 394,186 362,160 404,157" fill="#fff"/>
  <path d="M340 305c40 28 94 24 138 0" fill="none" stroke="#f97316" stroke-width="10" stroke-linecap="round"/>
</svg>
