<svg xmlns="http://www.w3.org/2000/svg" viewBox="0 0 640 420" role="img" aria-label="London Book Fair feature">
  <defs>
    <linearGradient id="g7" x1="0" y1="0" x2="1" y2="1">
      <stop offset="0%" stop-color="#eff6ff"/>
      <stop offset="100%" stop-color="#fef3c7"/>
    </linearGradient>
  </defs>
  <rect width="640" height="420" rx="24" fill="url(#g7)"/>
  <rect x="95" y="120" width="450" height="210" rx="16" fill="#fff" stroke="#cbd5e1" stroke-width="4"/>
  <rect x="95" y="92" width="450" height="42" rx="14" fill="#0f172a"/>
  <rect x="120" y="150" width="120" height="150" rx="10" fill="#14b8a6"/>
  <rect x="260" y="150" width="120" height="150" rx="10" fill="#0ea5a4"/>
  <rect x="400" y="150" width="120" height="150" rx="10" fill="#0d9488"/>
  <path d="M180 172v106M170 182h20M170 268h20" stroke="#fff" stroke-width="6" stroke-linecap="round"/>
  <path d="M320 172v106M308 182h24M308 268h24" stroke="#fff" stroke-width="6" stroke-linecap="round"/>
  <path d="M460 172v106M448 182h24M448 268h24" stroke="#fff" stroke-width="6" stroke-linecap="round"/>
  <circle cx="520" cy="106" r="10" fill="#facc15"/>
</svg>
