<svg xmlns="http://www.w3.org/2000/svg" viewBox="0 0 640 420" role="img" aria-label="Website and brand development">
  <defs>
    <linearGradient id="g1" x1="0" y1="0" x2="1" y2="1">
      <stop offset="0%" stop-color="#e6fffa"/>
      <stop offset="100%" stop-color="#dbeafe"/>
    </linearGradient>
  </defs>
  <rect width="640" height="420" rx="24" fill="url(#g1)"/>
  <rect x="80" y="70" width="480" height="280" rx="18" fill="#ffffff" stroke="#cbd5e1" stroke-width="4"/>
  <rect x="80" y="70" width="480" height="42" rx="18" fill="#0f172a"/>
  <circle cx="112" cy="91" r="7" fill="#f87171"/>
  <circle cx="136" cy="91" r="7" fill="#facc15"/>
  <circle cx="160" cy="91" r="7" fill="#34d399"/>
  <rect x="112" y="135" width="180" height="14" rx="7" fill="#0ea5a4"/>
  <rect x="112" y="160" width="250" height="10" rx="5" fill="#94a3b8"/>
  <rect x="112" y="180" width="220" height="10" rx="5" fill="#cbd5e1"/>
  <rect x="112" y="210" width="120" height="34" rx="8" fill="#14b8a6"/>
  <rect x="360" y="140" width="160" height="170" rx="12" fill="#f8fafc" stroke="#cbd5e1" stroke-width="3"/>
  <path d="M400 218l20-36 22 45 20-26 28 48H400z" fill="#38bdf8"/>
  <circle cx="484" cy="188" r="12" fill="#f59e0b"/>
</svg>
